{"title":"Universal.Soldier.Day.Of.Reckoning.2012.HDRiP.AC3-2.0.XviD-AXED","uid":7759937,"size":1461760863,"categoryP":"video","categoryS":"movies","magnet":"?xt=urn:btih:8d8a14fbe9cca376d197ea9a70077e24db47bbce&amp;dn=Universal.Soldier.Day.Of.Reckoning.2012.HDRiP.AC3-2.0.XviD-AXED&amp;tr=udp%3A%2F%2Ftracker.openbittorrent.com%3A80&amp;tr=udp%3A%2F%2Fopen.demonii.com%3A1337&amp;tr=udp%3A%2F%2Ftracker.coppersurfer.tk%3A6969&amp;tr=udp%3A%2F%2Fexodus.desync.com%3A6969","seeders":8,"leechers":0,"uploader":"Acesn8s","files":4,"time":1351199629,"description":"\n &lt;a href=&quot;\nhttp://www.imdb.com/title/tt1659343/&quot; rel=&quot;nofollow&quot; target=&quot;_NEW&quot;&gt;\nhttp://www.imdb.com/title/tt1659343/&lt;/a&gt;\n\nPLOT INFO:\nUnder their own command\n\nMEDIAINFO:\nGeneral\nComplete name: Universal.Soldier.Day.Of.Reckoning.2012.HDRiP.AC3-2.0.XviD-AXED.avi\nFormat: AVI\nFormat/Info: Audio Video Interleave\nFile size: 1.35 GiB\nDuration: 1h 53mn\nOverall bit rate: 1 702 Kbps\n\nVideo\nID: 0\nFormat: MPEG-4 Visual\nFormat profile: Advanced Simple@L5\nFormat settings, BVOP: 2\nFormat settings, QPel: No\nFormat settings, GMC: No warppoints\nFormat settings, Matrix: Default (H.263)\nMuxing mode: Packed bitstream\nCodec ID: XVID\nCodec ID/Hint: XviD\nDuration: 1h 53mn\nBit rate: 1 502 Kbps\nWidth: 720 pixels\nHeight: 304 pixels\nDisplay aspect ratio: 2.35:1\nFrame rate: 23.976 fps\nColor space: YUV\nChroma subsampling: 4:2:0\nBit depth: 8 bits\nScan type: Progressive\nCompression mode: Lossy\nBits/(Pixel*Frame): 0.286\nStream size: 1.19 GiB (88%)\nWriting library: XviD 64\n\nAudio\nID: 1\nFormat: AC-3\nFormat/Info: Audio Coding 3\nMode extension: CM (complete main)\nFormat settings, Endianness: Big\nCodec ID: 2000\nDuration: 1h 53mn\nBit rate mode: Constant\nBit rate: 192 Kbps\nChannel(s): 2 channels\nChannel positions: Front: L R\nSampling rate: 48.0 KHz\nBit depth: 16 bits\nCompression mode: Lossy\nStream size: 156 MiB (11%)\nAlignment: Aligned on interleaves\nInterleave, duration: 64 ms (1.53 video frames)\nInterleave, preload duration: 192 ms\nTitle: unisol.dor\n\nSOURCE:\n720p wmv Digital VOD Rental\n\nNOTES:\nHere's the newest installment in the Universal Soldier series starring Van Damme &amp; Dolph Lundgren following the events of the original and ReGeneration\n\nAXED! - The only name to trust for VOD/HDRiP!\n\nSCREENS: \n &lt;a href=&quot;\nhttp://imageshack.us/a/img17/5965/scrncp00013.png&quot; rel=&quot;nofollow&quot; target=&quot;_NEW&quot;&gt;\nhttp://imageshack.us/a/img17/5965/scrncp00013.png&lt;/a&gt; &lt;a href=&quot;\nhttp://imageshack.us/a/img37/1423/scrncp00017.png&quot; rel=&quot;nofollow&quot; target=&quot;_NEW&quot;&gt;\nhttp://imageshack.us/a/img37/1423/scrncp00017.png&lt;/a&gt; &lt;a href=&quot;\nhttp://imageshack.us/a/img842/8049/scrncp00019.png&quot; rel=&quot;nofollow&quot; target=&quot;_NEW&quot;&gt;\nhttp://imageshack.us/a/img842/8049/scrncp00019.png&lt;/a&gt; &lt;a href=&quot;\nhttp://imageshack.us/a/img51/2366/scrncp00036.png&quot; rel=&quot;nofollow&quot; target=&quot;_NEW&quot;&gt;\nhttp://imageshack.us/a/img51/2366/scrncp00036.png&lt;/a&gt;\n","torrent":{"xt":"urn:btih:8d8a14fbe9cca376d197ea9a70077e24db47bbce","amp;dn":"Universal.Soldier.Day.Of.Reckoning.2012.HDRiP.AC3-2.0.XviD-AXED","amp;tr":["udp%3A%2F%2Ftracker.openbittorrent.com%3A80","udp%3A%2F%2Fopen.demonii.com%3A1337","udp%3A%2F%2Ftracker.coppersurfer.tk%3A6969","udp%3A%2F%2Fexodus.desync.com%3A6969"],"infoHash":"8d8a14fbe9cca376d197ea9a70077e24db47bbce","infoHashBuffer":{"type":"Buffer","data":[141,138,20,251,233,204,163,118,209,151,234,154,112,7,126,36,219,71,187,206]},"announce":[],"urlList":[]}}